<svg xmlns="http://www.w3.org/2000/svg" width="30" height="9" viewBox="0 0 30 9"><path fill="#000" fill-rule="evenodd" d="M272.654 331a4.156 4.156 0 0 0-4.154 4.152 4.156 4.156 0 0 0 4.154 4.15 4.156 4.156 0 0 0 4.152-4.15 4.155 4.155 0 0 0-4.152-4.152zm0 7.226a3.08 3.08 0 0 1-3.078-3.074 3.081 3.081 0 0 1 3.078-3.076 3.08 3.08 0 0 1 3.076 3.076 3.08 3.08 0 0 1-3.076 3.074zm10.797-3.613a.54.54 0 0 1 .539.539.54.54 0 0 1-.539.537h-5.4a.537.537 0 1 1 0-1.076h5.4zm-16.199 0a.537.537 0 1 1 0 1.076h-12.719a.539.539 0 0 1 0-1.076h12.719z" transform="translate(-254 -331)"/></svg>